<svg width="21" height="21" viewBox="0 0 21 21" fill="none" xmlns="http://www.w3.org/2000/svg">
<path d="M10.5 21C7.56389 21 5.07986 20.5479 3.04792 19.6437C1.01597 18.7396 0 17.6361 0 16.3333V4.66667C0 3.38333 1.02569 2.28472 3.07708 1.37083C5.12847 0.456944 7.60278 0 10.5 0C13.3972 0 15.8715 0.456944 17.9229 1.37083C19.9743 2.28472 21 3.38333 21 4.66667V16.3333C21 17.6361 19.984 18.7396 17.9521 19.6437C15.9201 20.5479 13.4361 21 10.5 21ZM10.5 7.02917C12.2306 7.02917 13.9708 6.78125 15.7208 6.28542C17.4708 5.78958 18.4528 5.25972 18.6667 4.69583C18.4528 4.13194 17.4757 3.59722 15.7354 3.09167C13.9951 2.58611 12.25 2.33333 10.5 2.33333C8.73056 2.33333 6.99514 2.58125 5.29375 3.07708C3.59236 3.57292 2.60556 4.1125 2.33333 4.69583C2.60556 5.27917 3.59236 5.81389 5.29375 6.3C6.99514 6.78611 8.73056 7.02917 10.5 7.02917ZM10.5 12.8333C11.3167 12.8333 12.1042 12.7944 12.8625 12.7167C13.6208 12.6389 14.3451 12.5271 15.0354 12.3813C15.7257 12.2354 16.3771 12.0556 16.9896 11.8417C17.6021 11.6278 18.1611 11.3847 18.6667 11.1125V7.6125C18.1611 7.88472 17.6021 8.12778 16.9896 8.34167C16.3771 8.55556 15.7257 8.73542 15.0354 8.88125C14.3451 9.02708 13.6208 9.13889 12.8625 9.21667C12.1042 9.29444 11.3167 9.33333 10.5 9.33333C9.68333 9.33333 8.88611 9.29444 8.10833 9.21667C7.33056 9.13889 6.59653 9.02708 5.90625 8.88125C5.21597 8.73542 4.56944 8.55556 3.96667 8.34167C3.36389 8.12778 2.81944 7.88472 2.33333 7.6125V11.1125C2.81944 11.3847 3.36389 11.6278 3.96667 11.8417C4.56944 12.0556 5.21597 12.2354 5.90625 12.3813C6.59653 12.5271 7.33056 12.6389 8.10833 12.7167C8.88611 12.7944 9.68333 12.8333 10.5 12.8333ZM10.5 18.6667C11.3944 18.6667 12.3035 18.5986 13.2271 18.4625C14.1507 18.3264 15.0014 18.1465 15.7792 17.9229C16.5569 17.6993 17.2083 17.4465 17.7333 17.1646C18.2583 16.8826 18.5694 16.5958 18.6667 16.3042V13.4458C18.1611 13.7181 17.6021 13.9611 16.9896 14.175C16.3771 14.3889 15.7257 14.5688 15.0354 14.7146C14.3451 14.8604 13.6208 14.9722 12.8625 15.05C12.1042 15.1278 11.3167 15.1667 10.5 15.1667C9.68333 15.1667 8.88611 15.1278 8.10833 15.05C7.33056 14.9722 6.59653 14.8604 5.90625 14.7146C5.21597 14.5688 4.56944 14.3889 3.96667 14.175C3.36389 13.9611 2.81944 13.7181 2.33333 13.4458V16.3333C2.43056 16.625 2.73681 16.9069 3.25208 17.1792C3.76736 17.4514 4.41389 17.6993 5.19167 17.9229C5.96944 18.1465 6.825 18.3264 7.75833 18.4625C8.69167 18.5986 9.60556 18.6667 10.5 18.6667Z" fill="#4648D4"/>
</svg>
