<svg width="23" height="19" viewBox="0 0 23 19" fill="none" xmlns="http://www.w3.org/2000/svg">
<path d="M7.58333 18.6667C6.94167 18.6667 6.39236 18.4382 5.93542 17.9813C5.47847 17.5243 5.25 16.975 5.25 16.3333V12.8333H8.75V10.2083C8.06944 10.1694 7.42292 10.0188 6.81042 9.75625C6.19792 9.49375 5.63889 9.1 5.13333 8.575V7.29167H3.79167L0 3.5C0.7 2.60556 1.56528 1.97361 2.59583 1.60417C3.62639 1.23472 4.66667 1.05 5.71667 1.05C6.24167 1.05 6.75208 1.08889 7.24792 1.16667C7.74375 1.24444 8.24444 1.39028 8.75 1.60417V0H22.75V15.1667C22.75 16.1389 22.4097 16.9653 21.7292 17.6458C21.0486 18.3264 20.2222 18.6667 19.25 18.6667H7.58333ZM11.0833 12.8333H18.0833V15.1667C18.0833 15.4972 18.1951 15.7743 18.4188 15.9979C18.6424 16.2215 18.9194 16.3333 19.25 16.3333C19.5806 16.3333 19.8576 16.2215 20.0812 15.9979C20.3049 15.7743 20.4167 15.4972 20.4167 15.1667V2.33333H11.0833V3.03333L18.0833 10.0333V11.6667H16.45L13.125 8.34167L12.8917 8.575C12.6194 8.84722 12.3326 9.09028 12.0312 9.30417C11.7299 9.51806 11.4139 9.68333 11.0833 9.8V12.8333ZM4.78333 4.95833H7.46667V7.46667C7.7 7.62222 7.94306 7.72917 8.19583 7.7875C8.44861 7.84583 8.71111 7.875 8.98333 7.875C9.43056 7.875 9.83403 7.80694 10.1938 7.67083C10.5535 7.53472 10.9083 7.29167 11.2583 6.94167L11.4917 6.70833L9.85833 5.075C9.29445 4.51111 8.6625 4.08819 7.9625 3.80625C7.2625 3.52431 6.51389 3.38333 5.71667 3.38333C5.32778 3.38333 4.95833 3.4125 4.60833 3.47083C4.25833 3.52917 3.90833 3.61667 3.55833 3.73333L4.78333 4.95833ZM15.75 15.1667H7.58333V16.3333H15.925C15.8667 16.1583 15.8229 15.9736 15.7937 15.7792C15.7646 15.5847 15.75 15.3806 15.75 15.1667ZM7.58333 16.3333C7.58333 16.1583 7.58333 15.9736 7.58333 15.7792C7.58333 15.5847 7.58333 15.3806 7.58333 15.1667C7.58333 15.3611 7.58333 15.5556 7.58333 15.75C7.58333 15.9444 7.58333 16.1389 7.58333 16.3333Z" fill="#4648D4"/>
</svg>
